
        <svg xmlns="http://www.w3.org/2000/svg" xmlns:xlink="http://www.w3.org/1999/xlink" version="1.1" width="3230.769230769231" 
        height="2491.67238939393" viewBox="0 0 3230.769230769231 2491.67238939393">
			
			<g transform="scale(11.538461538461538) translate(10, 10)">
				<defs id="SvgjsDefs1928"><linearGradient id="SvgjsLinearGradient1935"><stop id="SvgjsStop1936" stop-color="#6d7cff" offset="0"></stop><stop id="SvgjsStop1937" stop-color="#ff51ff" offset="1"></stop></linearGradient><linearGradient id="SvgjsLinearGradient1938"><stop id="SvgjsStop1939" stop-color="#6d7cff" offset="0"></stop><stop id="SvgjsStop1940" stop-color="#ff51ff" offset="1"></stop></linearGradient></defs><g id="SvgjsG1929" featureKey="symbolFeature-0" transform="matrix(1.2777721452372612,0,0,1.2777721452372612,66.61139030097998,-12.259796353708023)" fill="url(#SvgjsLinearGradient1935)"><g xmlns="http://www.w3.org/2000/svg" transform="translate(0,-952.36218)"><path style="text-indent:0;text-transform:none;direction:ltr;block-progression:tb;baseline-shift:baseline;color:;enable-background:accumulate;" d="m 29.086397,961.95687 c -0.006,10e-4 -0.0125,0.003 -0.0186,0.005 -0.0403,0.007 -0.0783,0.027 -0.10722,0.056 l -1.41259,1.31468 -1.41259,1.31469 -1.41258,1.31468 c -0.023,0.0219 -0.0408,0.0493 -0.0513,0.0793 l -1.18881,3.23077 c -0.0104,0.0298 -0.0136,0.062 -0.009,0.0932 l 0.22378,1.91608 0.22377,1.91609 0.11655,0.97902 -2.77389,7.55244 c -2.84875,4.09108 -4.80595,8.71753 -5.75757,13.58042 l -0.73194,-4.23776 0.30303,-0.98368 0.56877,-1.84615 0.55944,-1.85082 c 0.009,-0.029 0.0138,-0.0585 0.009,-0.0886 l -0.59207,-3.39394 c -0.004,-0.0314 -0.0144,-0.0626 -0.0326,-0.0886 l -1.15617,-1.54313 -1.15152,-1.54778 -1.15617,-1.54779 c -0.0445,-0.0623 -0.12562,-0.0917 -0.20047,-0.0793 -0.0249,0.004 -0.0484,0.01 -0.0699,0.0233 -0.005,0.004 -0.01,0.009 -0.014,0.014 -0.0313,0.0264 -0.0547,0.063 -0.0653,0.10256 l -0.5641,1.84616 -0.56876,1.84615 -0.56411,1.8415 c -0.009,0.0305 -0.0105,0.0667 -0.005,0.0979 l 0.58742,3.38927 c 0.006,0.031 0.018,0.0637 0.0373,0.0886 l 1.15152,1.54313 1.15151,1.54778 0.59207,0.79254 1.3753,7.94405 c -0.0841,0.99797 -0.13054,2.00377 -0.13054,3.01167 0,4.0613 0.68197,7.9637 1.93007,11.6037 l -2.75058,-3.296 -0.2331,-1.007 -0.42891,-1.8788 -0.43823,-1.8834 c -0.007,-0.03 -0.0184,-0.06 -0.0373,-0.084 l -2.2098,-2.6434 c -0.0195,-0.025 -0.0458,-0.043 -0.0746,-0.056 l -1.7762201,-0.7646 -1.771564,-0.7599 -1.766899,-0.7645 c -0.09292,-0.042 -0.218826,-0 -0.265734,0.089 -0.0021,0.01 -0.0032,0.012 -0.0047,0.019 -0.01395,0.038 -0.01528,0.082 -0.0047,0.1212 l 0.433566,1.8788 0.428905,1.8834 0.433566,1.8788 c 0.0074,0.031 0.02127,0.06 0.04196,0.084 l 2.20513,2.648 c 0.0206,0.024 0.0454,0.039 0.0746,0.051 l 1.7715601,0.7646 1.77156,0.7646 0.90909,0.3869 5.16084,6.1911 c 2.12957,4.5201 5.17501,8.5256 8.89976,11.7716 l -4.0606,-1.4918 -0.70396,-0.7553 -1.31469,-1.4126 -1.31934,-1.4126 c -0.0206,-0.022 -0.0463,-0.04 -0.0746,-0.051 l -3.23543,-1.1841 c -0.0294,-0.012 -0.0616,-0.017 -0.0932,-0.014 l -1.91608,0.2284 -1.91608,0.2238 -1.91608,0.2238 c -0.10162,0.01 -0.18654,0.1078 -0.18182,0.2098 10e-4,0.01 0.003,0.012 0.005,0.019 0.007,0.04 0.027,0.078 0.0559,0.1072 l 1.31468,1.4126 1.31469,1.4126 1.31468,1.4126 c 0.0219,0.023 0.0493,0.041 0.0793,0.051 l 3.23077,1.1888 c 0.0298,0.01 0.062,0.014 0.0932,0.01 l 1.91608,-0.2238 1.91609,-0.2238 0.97902,-0.1165 7.59906,2.7925 c 3.99841,2.7828 8.59171,4.7693 13.54778,5.7343 l -4.25175,0.7366 -0.98834,-0.3031 -1.84615,-0.5641 -1.84616,-0.5641 c -0.029,-0.01 -0.0585,-0.014 -0.0886,-0.01 l -3.39393,0.5921 c -0.0314,0 -0.0626,0.019 -0.0886,0.037 l -1.54779,1.1562 -1.54778,1.1515 -1.54779,1.1515 c -0.0831,0.059 -0.10636,0.1844 -0.0513,0.2704 0.004,0.01 0.009,0.01 0.014,0.014 0.0264,0.031 0.063,0.055 0.10256,0.065 l 1.84616,0.5641 1.84149,0.5688 1.84615,0.5641 c 0.0305,0.01 0.062,0.011 0.0932,0.01 l 3.39394,-0.5828 c 0.031,-0.01 0.059,-0.023 0.0839,-0.042 l 1.5478,-1.1515 1.54778,-1.1515 0.78788,-0.5874 7.97202,-1.38 c 0.5652,0.047 1.13358,0.078 1.7063,0.098 l 0,0.023 c 0.21454,0 0.4296,-0.01 0.64335,-0.01 0.21376,0 0.42881,0.01 0.64336,0.01 l 0,-0.023 c 0.57272,-0.02 1.14109,-0.051 1.70629,-0.098 l 7.97202,1.38 0.78788,0.5874 1.54779,1.1515 1.54778,1.1515 c 0.0249,0.019 0.0529,0.036 0.0839,0.042 l 3.39394,0.5828 c 0.0312,0.01 0.0628,0 0.0932,-0.01 l 1.84615,-0.5641 1.84149,-0.5688 1.84615,-0.5641 c 0.0396,-0.011 0.0762,-0.034 0.10257,-0.065 0.005,-0 0.01,-0.01 0.014,-0.014 0.0551,-0.086 0.0318,-0.2111 -0.0513,-0.2704 l -1.54778,-1.1515 -1.54779,-1.1515 -1.54778,-1.1562 c -0.026,-0.018 -0.0572,-0.033 -0.0886,-0.037 l -3.39393,-0.5921 c -0.0301,-0 -0.0596,2e-4 -0.0886,0.01 l -1.84615,0.5641 -1.84615,0.5641 -0.98835,0.303 -4.25174,-0.7365 c 4.95607,-0.965 9.54936,-2.9515 13.54777,-5.7343 l 7.59907,-2.7926 0.97902,0.1166 1.91608,0.2238 1.91608,0.2238 c 0.0312,0 0.0635,10e-4 0.0932,-0.01 l 3.23077,-1.1889 c 0.03,-0.01 0.0574,-0.028 0.0793,-0.051 l 1.31468,-1.4125 1.31468,-1.4126 1.31469,-1.4126 c 0.029,-0.029 0.0488,-0.067 0.0559,-0.1072 0.002,-0.01 0.003,-0.012 0.005,-0.019 0.005,-0.102 -0.0802,-0.2 -0.18182,-0.2098 l -1.91608,-0.2238 -1.91609,-0.2238 -1.91607,-0.2284 c -0.0316,-0 -0.0638,0 -0.0932,0.014 l -3.23543,1.1841 c -0.0283,0.011 -0.054,0.029 -0.0746,0.051 l -1.31935,1.4126 -1.31468,1.4126 -0.70397,0.7552 -4.0606,1.4919 c 3.72476,-3.246 6.77019,-7.2515 8.89976,-11.7716 l 5.16084,-6.1911 0.90909,-0.387 1.77156,-0.7645 1.77156,-0.7646 c 0.0292,-0.012 0.054,-0.027 0.0746,-0.051 l 2.20513,-2.648 c 0.0207,-0.024 0.0345,-0.053 0.042,-0.084 l 0.43356,-1.8788 0.42891,-1.8835 0.43356,-1.8787 c 0.0106,-0.039 0.009,-0.083 -0.005,-0.1213 -0.001,-0.01 -0.003,-0.013 -0.005,-0.019 -0.0469,-0.091 -0.17281,-0.1308 -0.26573,-0.089 l -1.7669,0.7646 -1.77156,0.7599 -1.77622,0.7646 c -0.0288,0.013 -0.0551,0.031 -0.0746,0.056 l -2.20979,2.6433 c -0.0189,0.024 -0.0307,0.054 -0.0373,0.084 l -0.43823,1.8835 -0.4289,1.8788 -0.2331,1.007 -2.75058,3.296 c 1.24809,-3.64 1.93007,-7.5425 1.93007,-11.6037 0,-1.0079 -0.0464,-2.0137 -0.13054,-3.01168 l 1.37529,-7.94405 0.59207,-0.79254 1.15152,-1.54778 1.15151,-1.54313 c 0.0193,-0.0249 0.0314,-0.0576 0.0373,-0.0886 l 0.58741,-3.38927 c 0.006,-0.0312 0.004,-0.0674 -0.005,-0.0979 l -0.5641,-1.84149 -0.56877,-1.84616 -0.5641,-1.84615 c -0.0106,-0.0395 -0.0339,-0.0762 -0.0653,-0.10256 -0.004,-0.005 -0.009,-0.01 -0.014,-0.014 -0.0215,-0.0138 -0.045,-0.0192 -0.0699,-0.0233 -0.0748,-0.0124 -0.15597,0.0169 -0.20046,0.0793 l -1.15618,1.54779 -1.15154,1.54777 -1.15618,1.54313 c -0.0182,0.026 -0.0283,0.0572 -0.0326,0.0886 l -0.59207,3.39394 c -0.004,0.0301 1.5e-4,0.0596 0.009,0.0886 l 0.55944,1.85082 0.56877,1.84615 0.30303,0.98368 -0.73194,4.23776 c -0.95162,-4.86289 -2.90881,-9.48934 -5.75757,-13.58041 l -2.77389,-7.55244 0.11655,-0.97903 0.22378,-1.91608 0.22377,-1.91608 c 0.004,-0.0312 0.001,-0.0635 -0.009,-0.0932 l -1.18881,-3.23077 c -0.0105,-0.03 -0.0283,-0.0574 -0.0513,-0.0793 l -1.41259,-1.31469 -1.41259,-1.31468 -1.41258,-1.31469 c -0.0289,-0.029 -0.0669,-0.0488 -0.10723,-0.0559 -0.006,-0.002 -0.0124,-0.003 -0.0186,-0.005 -0.10198,-0.005 -0.19996,0.0802 -0.20979,0.18181 l -0.22377,1.91609 -0.22378,1.91608 -0.22844,1.91608 c -0.003,0.0316 0.002,0.0638 0.014,0.0932 l 1.18415,3.23543 c 0.0112,0.0283 0.0289,0.054 0.0513,0.0746 l 1.41259,1.31935 1.41258,1.31468 0.75525,0.70397 1.93007,5.25874 -0.28905,0.23776 -9.63169,-8.03263 -0.13986,-0.32634 -0.76457,-1.77156 -0.76457,-1.77156 -2.64335,-2.20514 -1.87878,-0.43356 -1.88345,-0.43357 -0.34033,-0.0793 -0.0513,-0.042 -0.0233,0.028 -1.46387,-0.34033 0.59207,1.38462 -0.0606,0.0746 0.14918,0.12121 0.0793,0.19114 0.76457,1.77623 0.76456,1.77156 2.64336,2.20512 1.88345,0.43357 1.87878,0.43357 0.20513,0.0466 9.74825,8.13053 c 1.15133,1.44327 2.17723,2.96843 3.0676,4.5641 l -7.72028,-3.5711 -0.10256,-0.13053 -1.19348,-1.51515 -1.1655,-1.47786 -3.03496,-1.40792 -1.88345,0.0699 -1.93007,0.0653 -1.5338,0.0559 0.95105,1.2028 1.19814,1.51515 1.16084,1.47785 3.03962,1.40793 1.88345,-0.0699 1.92541,-0.0653 0.27039,-0.009 9.03496,4.18181 c 2.19004,4.525 3.34732,9.5174 3.34732,14.61071 0,0.1572 -0.003,0.3142 -0.005,0.4709 l -4.89044,-6.93709 -0.0233,-0.16317 -0.27972,-1.91142 -0.2704,-1.86014 -1.92074,-2.7366 -1.669,-0.88111 -1.70163,-0.9091 -1.35664,-0.71794 0.21911,1.51515 0.28438,1.91142 0.26574,1.86014 1.9254,2.74125 1.669,0.88112 1.69697,0.90443 0.24242,0.12588 5.72494,8.13058 c -0.38331,5.3689 -2.02645,10.3888 -4.63869,14.7599 l -0.76923,-8.4709 0.0606,-0.1539 0.71794,-1.7948 0.69464,-1.7483 -0.2937,-3.3286 -1.00233,-1.5991 -1.02564,-1.6364 -0.81119,-1.30068 -0.56877,1.42188 -0.71328,1.7996 -0.6993,1.7436 0.30303,3.3333 1.00233,1.5991 1.01631,1.6317 0.14452,0.2331 0.89511,9.9114 c -2.92747,4.308 -6.83362,7.8954 -11.3986,10.4475 l 3.5711,-7.7156 0.13053,-0.1026 1.51515,-1.1934 1.47786,-1.1655 1.40792,-3.035 -0.0699,-1.8834 -0.0653,-1.9301 -0.0559,-1.5338 -1.20279,0.951 -1.51516,1.1982 -1.47785,1.1608 -1.40792,3.0396 0.0699,1.8835 0.0653,1.9254 0.009,0.2704 -4.18182,9.035 c -3.40472,1.6499 -7.13219,2.7422 -11.06293,3.1561 l -1.87879,-1.324 4.7972,-3.3799 0.16784,-0.023 1.90675,-0.2751 1.86481,-0.2704 2.73659,-1.9254 0.88112,-1.669 0.90909,-1.7016 0.71795,-1.3567 -1.51981,0.2238 -1.91143,0.2797 -1.86013,0.2658 -2.7366,1.9254 -0.88112,1.669 -0.90909,1.6969 -0.12587,0.2425 -5.0676,3.5711 -5.06759,-3.5711 -0.12588,-0.2425 -0.90909,-1.6969 -0.88112,-1.669 -2.73659,-1.9254 -1.86014,-0.2658 -1.91142,-0.2797 -1.51982,-0.2238 0.71795,1.3567 0.90909,1.7016 0.88112,1.669 2.7366,1.9254 1.8648,0.2704 1.90676,0.2751 0.16783,0.023 4.7972,3.3799 -1.87879,1.324 c -3.93073,-0.4139 -7.65821,-1.5062 -11.06293,-3.1561 l -4.18181,-9.035 0.009,-0.2704 0.0653,-1.9254 0.0699,-1.8835 -1.40793,-3.0396 -1.47785,-1.1608 -1.51515,-1.1982 -1.2028,-0.951 -0.0559,1.5338 -0.0653,1.9301 -0.0699,1.8834 1.40792,3.035 1.47786,1.1655 1.51515,1.1934 0.13053,0.1026 3.5711,7.7156 c -4.56498,-2.5521 -8.47113,-6.1395 -11.3986,-10.4475 l 0.89511,-9.9114 0.14452,-0.2331 1.01632,-1.6317 1.00233,-1.5991 0.30303,-3.3333 -0.6993,-1.7436 -0.71329,-1.7996 -0.56876,-1.42188 -0.81119,1.30068 -1.02564,1.6364 -1.00233,1.5991 -0.29371,3.3286 0.69464,1.7483 0.71795,1.7948 0.0606,0.1539 -0.76923,8.4709 c -2.61224,-4.3711 -4.25538,-9.391 -4.63869,-14.7599 l 5.72494,-8.13058 0.24242,-0.12588 1.69697,-0.90443 1.669,-0.88112 1.92541,-2.74125 0.26573,-1.86014 0.28438,-1.91142 0.21912,-1.51515 -1.35665,0.71794 -1.70163,0.9091 -1.66899,0.88111 -1.92075,2.7366 -0.2704,1.86014 -0.27972,1.91142 -0.0233,0.16317 -4.89044,6.93709 c -0.002,-0.1567 -0.005,-0.3137 -0.005,-0.4709 0,-5.09331 1.15728,-10.08571 3.34732,-14.61071 l 9.03496,-4.18181 0.27039,0.009 1.92541,0.0653 1.88345,0.0699 3.03962,-1.40793 1.16084,-1.47785 1.19814,-1.51515 0.95105,-1.2028 -1.5338,-0.0559 -1.93007,-0.0653 -1.88345,-0.0699 -3.03496,1.40792 -1.1655,1.47786 -1.19348,1.51515 -0.10256,0.13053 -7.72028,3.5711 c 0.89036,-1.59567 1.91627,-3.12083 3.06759,-4.5641 l 9.74825,-8.13053 0.20513,-0.0466 1.87879,-0.43357 1.88344,-0.43357 2.64336,-2.20512 0.76457,-1.77156 0.76457,-1.77623 0.0793,-0.19114 0.14918,-0.12121 -0.0606,-0.0746 0.59207,-1.38462 -1.46387,0.34033 -0.0233,-0.028 -0.0513,0.042 -0.34032,0.0793 -1.88345,0.43357 -1.87879,0.43356 -2.64336,2.20513 -0.76456,1.77156 -0.76457,1.77156 -0.13986,0.32634 -9.6317,8.03263 -0.28904,-0.23776 1.93007,-5.25874 0.75524,-0.70396 1.41259,-1.31469 1.41258,-1.31934 c 0.0224,-0.0206 0.0401,-0.0463 0.0513,-0.0746 l 1.18414,-3.23543 c 0.0119,-0.0294 0.0168,-0.0616 0.014,-0.0932 l -0.22844,-1.91608 -0.22377,-1.91608 -0.22378,-1.91608 c -0.01,-0.10162 -0.1078,-0.18654 -0.20979,-0.18182 z m 20.91374,72.96963 1.04429,0.7366 c -0.34685,0.017 -0.69474,0.031 -1.04429,0.037 -0.34896,-0.01 -0.69802,-0.02 -1.04429,-0.037 l 1.04429,-0.7366 z" fill="url(#SvgjsLinearGradient1935)" fill-opacity="1" fill-rule="nonzero" stroke="none" marker="none" visibility="visible" display="inline" overflow="visible"></path></g></g><g id="SvgjsG1930" featureKey="nameFeature-0" transform="matrix(0.7457801656867138,0,0,0.7457801656867138,-2.130767807548927,114.4772943427386)" fill="#ffffff"><path d="M24 11.428999999999998 l7.4286 0 l0 28.571 l-7.4286 0 l0 -16 l-5.0286 9.7143 l-3.7143 0 l-4.9714 -9.7143 l0 16 l-7.4286 0 l0 -28.571 l7.4286 0 l6.8571 12.971 z M36.28567142857143 40 l0 -24.286 l4.2857 -4.2857 l16.571 0 l4.2857 4.2857 l0 24.286 l-7.4286 0 l0 -8 l-10.286 0 l0 8 l-7.4286 0 z M43.71457142857143 25.714 l10.286 0 l0 -8 l-10.286 0 l0 8 z M64.28571142857143 17.714 l0 -6.2857 l24.286 0 l0 6.2857 l-8.4571 0 l0 22.286 l-7.4286 0 l0 -22.286 l-8.4 0 z M89.42856857142857 17.714 l0 -6.2857 l24.286 0 l0 6.2857 l-8.4571 0 l0 22.286 l-7.4286 0 l0 -22.286 l-8.4 0 z M134.3432857142857 11.428999999999998 l7.4286 0 l0 28.571 l-7.4286 0 l0 -11.143 l-10.286 0 l0 11.143 l-7.4857 0 l0.057143 -28.571 l7.4286 0 l0 11.143 l10.286 0 l0 -11.143 z M170.91442857142857 17.714 l-16.857 0 l0 4.8571 l14.571 0 l0 6.2857 l-14.571 0 l0 4.8571 l16.857 0 l0 6.2857 l-20 0 l-4.2857 -4.2857 l0 -24.286 l24.286 0 l0 6.2857 z M202.6282857142857 11.428999999999998 l6.8571 0 l0 3.4286 l-6.9714 25.143 l-6.8571 0 l-3.7143 -13.486 l-3.7143 13.486 l-6.8571 0 l-7.0286 -25.143 l0 -3.4286 l6.8571 0 l4.1714 16.914 l4.1143 -16.914 l4.8571 0 l4.1714 16.914 z M244.34271428571427 17.714 l-10.571 0 l0 4.8571 l14 0 l4.2857 4.2857 l0 8.8571 l-4.2857 4.2857 l-17.143 0 l-4.2857 -4.2857 l0 -4.2857 l5.4286 0 l2.2857 2.2857 l10.571 0 l0 -4.8571 l-14 0 l-4.2857 -4.2857 l0 -8.8571 l4.2857 -4.2857 l17.143 0 l4.2857 4.2857 l0 4.2857 l-5.4286 0 z M254.9142828571428 17.714 l0 -6.2857 l24.286 0 l0 6.2857 l-8.4571 0 l0 22.286 l-7.4286 0 l0 -22.286 l-8.4 0 z M306.34299999999996 17.714 l-16.857 0 l0 4.8571 l14.571 0 l0 6.2857 l-14.571 0 l0 4.8571 l16.857 0 l0 6.2857 l-20 0 l-4.2857 -4.2857 l0 -24.286 l24.286 0 l0 6.2857 z M310.34285714285716 40 l0 -5.7143 l2.2857 0 l0 -17.143 l-2.2857 0 l0 -5.7143 l12 0 l0 5.7143 l-2.2857 0 l0 17.143 l2.2857 0 l0 5.7143 l-12 0 z M344.05671428571435 11.428999999999998 l7.4286 0 l0 28.571 l-6.5714 0 l-11.143 -16 l0 16 l-7.4286 0 l0 -28.571 l6.5714 0 l11.143 15.886 l0 -15.886 z"></path></g><g id="SvgjsG1931" featureKey="sloganFeature-0" transform="matrix(1.4749138871507983,0,0,1.4749138871507983,39.10702335860461,152.7777091484638)" fill="url(#SvgjsLinearGradient1938)"><path d="M8.5742 4.648 l0.11719 0 l0 0.078125 l-0.11719 0 l0 -0.078125 z M6.3086 4.686999999999999 q0.517578125 0.234375 0.7421875 0.390625 q0.078125 0 0.078125 0.078125 q0.3515625 -0.048828125 0.4296875 -0.078125 l0 0.039063 l0.89844 -0.15625 q0 0.0390625 0.0390625 0.0390625 l0 -0.039063 q0.0390625 0 0.0390625 0.0390625 l0.27344 -0.039063 l0.3125 0 l0.078125 -0.039063 q0 0.0390625 0.0390625 0.0390625 l0 -0.039063 q0.0390625 0 0.0390625 0.0390625 l0.19531 -0.039063 l0.078125 0.039063 q0.068359375 -0.0390625 0.15625 -0.0390625 l0.078125 0 q0.0390625 0 0.0390625 0.0390625 l0.078125 -0.039063 l0.3125 0 q0.0390625 0 0.0390625 0.0390625 q0.0390625 0 0.0390625 -0.0390625 q1.328125 0.068359375 1.328125 0.15625 q0.078125 -0.0390625 0.1171875 -0.0390625 q0.068359375 0 0.234375 0.078125 q0.0390625 0 0.0390625 -0.0390625 q0.419921875 0.0390625 0.5078125 0.078125 q0 -0.0390625 0.0390625 -0.0390625 q0 0.068359375 0.5859375 0.1953125 q0 -0.0390625 0.0390625 -0.0390625 q0 0.048828125 0.546875 0.234375 q0.546875 0.322265625 0.546875 0.625 q0.078125 0 0.078125 0.15625 q-0.0390625 0.078125 -0.0390625 0.1171875 q0.0390625 0 0.0390625 0.0390625 q-0.09765625 0 -0.1171875 0.15625 l-1.7578 -0.27344 l-0.27344 0.039063 l-0.078125 -0.039063 q-0.078125 0.0390625 -0.1171875 0.0390625 q-0.078125 -0.0390625 -0.1171875 -0.0390625 l0 0.039063 q-0.3125 -0.0390625 -0.3125 -0.078125 q-0.0390625 0 -0.0390625 0.0390625 l-0.19531 -0.039063 l-0.078125 0 q-0.0390625 0 -0.0390625 0.0390625 l-0.078125 -0.039063 l-1.0938 0 l-0.19531 0.039063 q0 -0.0390625 -0.0390625 -0.0390625 q0 0.0390625 -0.0390625 0.0390625 l0 -0.039063 l-0.078125 0.039063 q-0.068359375 -0.0390625 -0.15625 -0.0390625 q0 0.15625 -0.8984375 0.15625 q0 0.0390625 -0.234375 0.078125 l0 -0.039063 q-1.5234375 0.25390625 -1.6796875 0.390625 l-0.078125 -0.039063 q-0.33203125 0 -0.703125 0.6640625 q-0.078125 0 -0.546875 0.7421875 l0.039063 0.078125 q-0.166015625 0 -0.8203125 1.25 q0 0.068359375 -0.15625 0.2734375 q-0.46875 0.859375 -0.46875 0.9375 q0.0390625 0 0.0390625 0.0390625 q-0.146484375 0 -0.78125 1.5625 q0 0.0390625 -0.0390625 0.1171875 l0.039063 0 q1.181640625 -0.2734375 1.484375 -0.46875 l0.15625 0 q0.0390625 0 0.0390625 0.0390625 q0.8984375 -0.3125 1.2890625 -0.3125 q0 -0.0390625 0.0390625 -0.0390625 l0 0.039063 l0.89844 -0.19531 l0 0.039063 q0.048828125 -0.0390625 0.5859375 -0.1171875 q0 0.0390625 0.0390625 0.0390625 q0.009765625 -0.078125 0.078125 -0.078125 q0 0.0390625 0.0390625 0.0390625 l0 -0.039063 l0.078125 0.039063 l0.039063 0 l0.078125 -0.039063 l0 0.039063 l0.078125 -0.039063 l0.23438 0 q0.0390625 0 0.0390625 0.0390625 l0.078125 -0.039063 l0.15625 0 q0.087890625 0 0.15625 0.0390625 q0.068359375 -0.0390625 0.15625 -0.0390625 l0.039063 0 q0.0390625 0 0.0390625 0.0390625 l0.078125 -0.039063 l0.19531 0.078125 q0.068359375 -0.0390625 0.15625 -0.0390625 q0.498046875 0.15625 0.7421875 0.15625 l0 0.039063 q0 0.21484375 -0.625 0.2734375 q0 0.078125 -0.078125 0.078125 q-0.0390625 0 -0.0390625 -0.0390625 q-0.078125 0.0390625 -0.3515625 0.078125 l0.039063 0.078125 l-0.078125 0.039063 q0 -0.0390625 -0.0390625 -0.0390625 q0 0.0390625 -0.0390625 0.0390625 l0 -0.039063 l-0.15625 0.11719 q-0.673828125 0 -1.875 0.390625 q-0.107421875 0 -0.5078125 0.234375 l-0.078125 -0.039063 l-0.625 0.23438 l-0.078125 -0.039063 q0 0.078125 -1.171875 0.390625 q-1.064453125 0.458984375 -1.5234375 0.7421875 q-0.6640625 0.25390625 -0.6640625 0.8984375 q-0.126953125 0.185546875 -0.1953125 0.703125 l-0.039063 0 q0 0.0390625 0.0390625 0.0390625 q-0.09765625 0.732421875 -0.15625 0.78125 l0.039063 0.078125 q-0.029296875 0.390625 -0.078125 0.390625 l0.039063 0.078125 q0 0.1953125 -0.078125 0.1953125 q0.0390625 0.078125 0.0390625 0.1171875 q-0.0390625 0.341796875 -0.0390625 0.4296875 q0.0390625 0 0.0390625 0.0390625 l-0.039063 0 q0.0390625 0.087890625 0.078125 0.5078125 l-0.039063 0 l0.039063 0.078125 l0 0.3125 l0.039063 0.19531 l-0.039063 0 q0.0390625 0.234375 0.078125 0.234375 q-0.0390625 0.009765625 -0.0390625 0.390625 l-0.039063 0 l0 -0.078125 l-0.039063 0 l-0.039063 0.19531 l-0.039063 0 q0 -0.1171875 -0.078125 -0.1171875 l-0.039063 0 l0 0.19531 q0 0.078125 -0.078125 0.078125 l-0.11719 0 l-0.039063 0.078125 l-0.078125 -0.039063 q-0.068359375 0.0390625 -0.15625 0.0390625 q-0.1171875 -0.13671875 -0.390625 -1.484375 l-0.039063 0 q0 -0.0390625 0.0390625 -0.0390625 q-0.078125 -0.29296875 -0.078125 -0.3125 l0.039063 0 q-0.078125 0 -0.1171875 -1.25 l-0.039063 0 l0.039063 -0.078125 l0 -0.039063 q0 -0.0390625 -0.0390625 -0.0390625 l0.039063 -0.078125 l0 -0.19531 l0.19531 -1.7578 q-0.15625 0 -0.3515625 -0.3125 l0 -0.23438 q0.1953125 -0.263671875 0.390625 -0.3515625 q0 0.0390625 0.0390625 0.0390625 q0 -0.078125 0.2734375 -0.3125 l0.3125 -1.0547 l0.078125 0.039063 q0 -0.09765625 0.3125 -0.859375 l-0.078125 0 q0.3125 -0.6640625 0.3125 -0.7421875 l0.078125 0.039063 q0 -0.087890625 0.1953125 -0.546875 l-0.039063 0 q0.46875 -1.044921875 0.7421875 -1.4453125 q0.41015625 -0.87890625 0.6640625 -1.2109375 q-0.5859375 0 -0.9765625 -0.5859375 l-0.039063 0 q0 -0.0390625 0.0390625 -0.0390625 q-0.1953125 -0.361328125 -0.1953125 -0.46875 l0.35156 -0.23438 l0.039063 0 q0.009765625 0.078125 0.078125 0.078125 q0 -0.048828125 0.3515625 -0.3125 q0 -0.0390625 0.234375 -0.1171875 l0.078125 0.039063 q0.537109375 -0.322265625 1.25 -0.5078125 q0.224609375 0 0.8984375 -0.7421875 q0.3125 -0.078125 0.3125 -0.15625 l0 -0.039063 z M13.75005 11.1328 l0.078125 0.039063 l0.19531 0 q0.0390625 0 0.0390625 -0.0390625 q0.263671875 0.1171875 0.4296875 0.1171875 q0.0390625 0 0.0390625 -0.0390625 l0.15625 0.078125 q0.078125 -0.0390625 0.1171875 -0.0390625 q1.015625 0.546875 1.015625 1.015625 q0.1171875 0.3125 0.15625 0.3125 q0 0.078125 0.390625 0.078125 l0.3125 0 l0.19531 0.039063 l0 -0.039063 l0.3125 0.078125 q0 -0.0390625 0.0390625 -0.0390625 l0 0.039063 l0.078125 -0.039063 l0.11719 0 l0.078125 0.039063 q0 -0.0390625 0.0390625 -0.0390625 q0 0.0390625 0.0390625 0.0390625 l0 -0.039063 q0.107421875 0.029296875 0.46875 0.078125 l0 -0.039063 q2.12890625 0.21484375 2.34375 0.5078125 q-0.05859375 0 -0.1171875 0.078125 l-0.11719 0 q0 0.068359375 -0.3515625 0.15625 l0 0.039063 q-0.078125 -0.0390625 -0.1171875 -0.0390625 l-0.15625 0.078125 q0 -0.0390625 -0.0390625 -0.0390625 l0 0.039063 q0.078125 0.009765625 0.078125 0.078125 q-0.390625 -0.0390625 -0.5859375 -0.0390625 l-1.2109 0 l-0.27344 0.039063 l0 -0.039063 l-0.078125 0.039063 l-0.625 0 q-0.0390625 0 -0.0390625 -0.0390625 q-0.0390625 0 -0.0390625 0.0390625 l-0.39063 -0.039063 l-0.19531 0 q0 0.1171875 -0.0390625 0.2734375 q0.0390625 0 0.0390625 0.0390625 l-0.039063 0 l0.039063 0.078125 l0 0.039063 q0 0.0390625 -0.0390625 0.0390625 q0.0390625 0.234375 0.078125 0.234375 l-0.039063 0.078125 l0 0.27344 q0 0.0390625 0.0390625 0.0390625 l-0.039063 0.078125 l0 0.42969 q0 0.0390625 -0.0390625 0.0390625 q0.0390625 0.078125 0.0390625 0.1171875 l-0.039063 0.078125 l0.039063 0.078125 q-0.0390625 0.068359375 -0.0390625 0.15625 l0 0.039063 l0.11719 0 q-0.1171875 1.19140625 -0.46875 1.9921875 q-0.810546875 1.66015625 -1.7578125 2.0703125 q-0.498046875 0.234375 -0.9375 0.234375 l-0.42969 0 q-0.654296875 -0.05859375 -1.2890625 -0.46875 q-0.56640625 -0.537109375 -0.78125 -1.25 q-0.1171875 -0.302734375 -0.1171875 -0.546875 l0 -0.078125 q0 -1.279296875 1.2890625 -3.5546875 q0.48828125 -0.849609375 1.015625 -1.4453125 q0 -0.048828125 0.1953125 -0.234375 q0 -0.01953125 0.234375 -0.2734375 q0 -0.1953125 -0.078125 -0.1953125 q0 -0.625 0.5078125 -0.78125 q0.15625 0 0.15625 -0.0390625 z M12.1875 17.1094 l0.039063 0 q-0.078125 0.126953125 -0.078125 0.1953125 q0.0390625 0 0.0390625 0.0390625 q-0.09765625 0 -0.1953125 1.1328125 q0.078125 0.3515625 0.1171875 0.3515625 q0.72265625 0 1.2890625 -0.78125 q0.185546875 -0.2734375 0.234375 -0.2734375 l-0.039063 -0.078125 q0.107421875 -0.234375 0.15625 -0.234375 q0 0.0390625 0.0390625 0.0390625 l0.078125 -0.15625 q-0.0390625 -0.078125 -0.0390625 -0.1171875 l0.078125 0.039063 q0.3125 -0.60546875 0.3125 -0.9375 q0.029296875 -0.1953125 0.1171875 -0.1953125 l0 -0.23438 q0.15625 0 0.3125 -2.1484375 q-0.0390625 -0.068359375 -0.0390625 -0.15625 l0.039063 -0.078125 q0 -0.107421875 -0.3515625 -0.234375 l-0.078125 0.039063 q-0.09765625 -0.078125 -0.1171875 -0.078125 l-0.039063 0 q-0.15625 0.126953125 -0.8984375 1.6796875 q-0.673828125 1.23046875 -0.9765625 2.1875 z M16.17185 15.4687 l0.039063 0 l0 0.19531 l-0.039063 0 l0 -0.19531 z M13.82815 17.3047 l0 0.039063 q-0.0390625 0.078125 -0.0390625 0.1171875 l-0.039063 0 l0 -0.11719 z M20.73246875 11.5625 q0.224609375 0.1171875 0.3125 0.1171875 l0.11719 0 q0 0.087890625 0.2734375 0.1953125 q0.33203125 0.361328125 0.390625 0.78125 l0 0.3125 q-0.1171875 0.380859375 -0.1171875 0.4296875 l0.039063 0 q2.0703125 -1.6015625 3.8671875 -1.6015625 q0.986328125 0 1.7578125 0.7421875 q0 0.087890625 0.0390625 0.15625 q-0.13671875 0.0390625 -0.15625 0.0390625 l0.039063 0.078125 l-0.039063 0 l0.039063 0.078125 q0 0.078125 -0.3125 0.1171875 q-0.1953125 -0.0390625 -0.1953125 -0.078125 l-0.078125 0.039063 q-0.37109375 -0.078125 -0.5859375 -0.078125 q-0.0390625 0 -0.0390625 0.0390625 q-0.0390625 0 -0.0390625 -0.0390625 q-1.19140625 0 -3.1640625 1.40625 q-1.58203125 1.4453125 -1.8359375 2.0703125 q-0.15625 0.0390625 -0.625 0.9765625 q-0.1953125 0.87890625 -0.390625 1.171875 q-0.341796875 1.0546875 -0.546875 1.0546875 q0 0.29296875 -0.703125 0.4296875 q0 -0.087890625 -0.3125 -0.1953125 l0 -0.039063 q0.0390625 0 0.0390625 -0.0390625 q-0.166015625 0 -0.3515625 -0.9765625 q-0.068359375 0 -0.078125 -0.1953125 l0 -0.078125 l0.078125 0.039063 q1.03515625 -1.708984375 1.09375 -2.265625 q0.0390625 0 0.1171875 -0.3125 l-0.039063 0 q0.1171875 -0.1953125 0.1171875 -0.3125 l-0.039063 -0.078125 l0.078125 -0.039063 q0 0.0390625 0.0390625 0.0390625 q0 -0.25390625 0.546875 -1.9921875 q0.1953125 -0.625 0.5078125 -1.4453125 q0.09765625 -0.5078125 0.15625 -0.546875 z M32.0410375 9.375 q0.166015625 0 0.3125 0.078125 q0 -0.0390625 0.0390625 -0.0390625 q0 0.068359375 0.1953125 0.1171875 l0 -0.039063 l0.58594 0.15625 q0.13671875 0.15625 0.2734375 0.15625 q0.15625 0.439453125 0.15625 0.546875 l0 0.039063 q0 0.498046875 -0.78125 1.953125 l-0.078125 -0.039063 q-0.712890625 1.2890625 -1.3671875 2.1484375 q-1.162109375 1.2890625 -1.640625 1.2890625 q-0.0390625 0 -0.46875 -0.1171875 l-0.11719 0 q0 -0.09765625 -0.3515625 -0.3125 l-0.23438 -0.35156 l0 -0.078125 l0.15625 0.039063 q0.615234375 0 1.171875 -0.703125 q0.4296875 -0.29296875 0.9765625 -0.9765625 l0.039063 0 l-0.039063 -0.078125 q0.56640625 -0.703125 1.09375 -1.8359375 l0.078125 0 l-0.039063 0.078125 l0.039063 0 l0.11719 -0.19531 l-0.039063 0 q0 0.078125 -0.078125 0.078125 l0 -0.078125 q0.3515625 -0.634765625 0.3515625 -0.7421875 q-0.576171875 0.09765625 -1.640625 1.2109375 q-0.703125 0.60546875 -0.703125 0.859375 q-1.42578125 1.708984375 -2.265625 3.75 q-0.2734375 0.83984375 -0.2734375 1.4453125 q0.1171875 0.9375 0.6640625 0.9375 q0 0.0390625 0.0390625 0.0390625 l0.3125 0 l0.078125 -0.039063 l0 0.039063 q0.60546875 0 2.109375 -1.484375 q0.48828125 -0.46875 0.703125 -0.46875 l0.039063 0 q0 0.078125 0.1953125 0.1953125 l0.039063 0.078125 q-0.078125 0.009765625 -0.078125 0.078125 q0.009765625 0.078125 0.078125 0.078125 q0 -0.0390625 0.0390625 -0.0390625 l0.039063 0.27344 l0 0.078125 l-0.078125 0.11719 l0.039063 0 q-0.0390625 0.048828125 -0.0390625 0.234375 l0.039063 0 q-0.078125 0.15625 -0.1171875 0.15625 l0.039063 0.078125 q-0.498046875 0.927734375 -0.703125 1.1328125 q-0.869140625 0.7421875 -1.40625 0.7421875 q0 0.0390625 -0.2734375 0.0390625 l-0.39063 0 q-0.0390625 0 -0.0390625 -0.0390625 q-0.0390625 0 -0.0390625 0.0390625 q-0.6640625 -0.087890625 -1.5234375 -0.6640625 q-0.46875 -0.380859375 -0.859375 -0.9375 q-0.4296875 -0.927734375 -0.4296875 -1.25 l0 -0.46875 q0.068359375 -0.947265625 0.78125 -2.1484375 q0.29296875 -0.673828125 1.6015625 -2.3828125 q1.396484375 -1.5625 2.0703125 -1.9921875 q0.46875 -0.302734375 0.46875 -0.390625 l0.078125 0.039063 q0 -0.15625 0.6640625 -0.4296875 l0.39063 0 z M39.853503125 9.18 l0.078125 0.039063 l0.039063 0 l0.078125 -0.039063 q0 0.1171875 0.1953125 0.1171875 l-0.039063 0.078125 q0.0390625 0.078125 0.0390625 0.1171875 q-0.0390625 0 -0.0390625 0.0390625 q0.05859375 0 0.1171875 0.15625 l-0.11719 0.58594 l0.078125 -0.039063 l0 0.039063 q-0.25390625 0.322265625 -0.3515625 0.703125 q-0.048828125 0.078125 -0.1171875 0.078125 l0 0.19531 q-0.478515625 0.751953125 -0.546875 1.0546875 q-1.1328125 1.71875 -1.1328125 1.8359375 q-0.380859375 0.732421875 -1.5625 2.65625 q0 0.185546875 -0.546875 1.1328125 l-0.85938 1.3672 q-0.244140625 0.205078125 -0.3515625 0.546875 q-0.1171875 0 -0.390625 0.1171875 q-0.087890625 0 -0.15625 0.0390625 q0 -0.078125 -0.078125 -0.078125 l-0.19531 0 q0 -0.146484375 -0.15625 -0.1953125 q0 -0.09765625 -0.15625 -0.1171875 l0 -0.039063 q0 -0.25390625 -0.1953125 -0.7421875 l-0.078125 -0.39063 l0.039063 0 l-0.039063 -0.078125 q0.0390625 -0.83984375 0.0390625 -1.25 l0.039063 0 q0 -0.0390625 -0.0390625 -0.0390625 q0.0390625 -0.625 0.15625 -1.2109375 l-0.039063 -0.078125 q0.078125 -0.29296875 0.078125 -0.3515625 q-0.0390625 -0.078125 -0.0390625 -0.1171875 q0.087890625 0 0.2734375 -1.2109375 q0.78125 -2.71484375 0.78125 -2.734375 q-0.078125 0 -0.078125 -0.078125 q0.0390625 -0.1171875 0.078125 -0.1171875 t0.039063 0.039063 q0.01953125 0 0.15625 -0.0390625 q0.17578125 0 0.3515625 0.1171875 q0.0390625 0 0.0390625 -0.0390625 q0.05859375 0 0.546875 0.3515625 q0.0390625 0.009765625 0.2734375 0.546875 q0 0.380859375 -0.5859375 2.1875 l0 0.11719 q-0.322265625 0.8984375 -0.4296875 1.640625 l0.23438 0 q0 -0.087890625 0.234375 -0.3515625 q2.4609375 -4.111328125 4.296875 -6.3671875 l-0.078125 0 l0 -0.039063 z M45.039084375 9.375 q0.166015625 0 0.3125 0.078125 q0 -0.0390625 0.0390625 -0.0390625 q0 0.068359375 0.1953125 0.1171875 l0 -0.039063 l0.58594 0.15625 q0.13671875 0.15625 0.2734375 0.15625 q0.15625 0.439453125 0.15625 0.546875 l0 0.039063 q0 0.498046875 -0.78125 1.953125 l-0.078125 -0.039063 q-0.712890625 1.2890625 -1.3671875 2.1484375 q-1.162109375 1.2890625 -1.640625 1.2890625 q-0.0390625 0 -0.46875 -0.1171875 l-0.11719 0 q0 -0.09765625 -0.3515625 -0.3125 l-0.23438 -0.35156 l0 -0.078125 l0.15625 0.039063 q0.615234375 0 1.171875 -0.703125 q0.4296875 -0.29296875 0.9765625 -0.9765625 l0.039063 0 l-0.039063 -0.078125 q0.56640625 -0.703125 1.09375 -1.8359375 l0.078125 0 l-0.039063 0.078125 l0.039063 0 l0.11719 -0.19531 l-0.039063 0 q0 0.078125 -0.078125 0.078125 l0 -0.078125 q0.3515625 -0.634765625 0.3515625 -0.7421875 q-0.576171875 0.09765625 -1.640625 1.2109375 q-0.703125 0.60546875 -0.703125 0.859375 q-1.42578125 1.708984375 -2.265625 3.75 q-0.2734375 0.83984375 -0.2734375 1.4453125 q0.1171875 0.9375 0.6640625 0.9375 q0 0.0390625 0.0390625 0.0390625 l0.3125 0 l0.078125 -0.039063 l0 0.039063 q0.60546875 0 2.109375 -1.484375 q0.48828125 -0.46875 0.703125 -0.46875 l0.039063 0 q0 0.078125 0.1953125 0.1953125 l0.039063 0.078125 q-0.078125 0.009765625 -0.078125 0.078125 q0.009765625 0.078125 0.078125 0.078125 q0 -0.0390625 0.0390625 -0.0390625 l0.039063 0.27344 l0 0.078125 l-0.078125 0.11719 l0.039063 0 q-0.0390625 0.048828125 -0.0390625 0.234375 l0.039063 0 q-0.078125 0.15625 -0.1171875 0.15625 l0.039063 0.078125 q-0.498046875 0.927734375 -0.703125 1.1328125 q-0.869140625 0.7421875 -1.40625 0.7421875 q0 0.0390625 -0.2734375 0.0390625 l-0.39063 0 q-0.0390625 0 -0.0390625 -0.0390625 q-0.0390625 0 -0.0390625 0.0390625 q-0.6640625 -0.087890625 -1.5234375 -0.6640625 q-0.46875 -0.380859375 -0.859375 -0.9375 q-0.4296875 -0.927734375 -0.4296875 -1.25 l0 -0.46875 q0.068359375 -0.947265625 0.78125 -2.1484375 q0.29296875 -0.673828125 1.6015625 -2.3828125 q1.396484375 -1.5625 2.0703125 -1.9921875 q0.46875 -0.302734375 0.46875 -0.390625 l0.078125 0.039063 q0 -0.15625 0.6640625 -0.4296875 l0.39063 0 z M48.09575 11.5625 q0.224609375 0.1171875 0.3125 0.1171875 l0.11719 0 q0 0.087890625 0.2734375 0.1953125 q0.33203125 0.361328125 0.390625 0.78125 l0 0.3125 q-0.1171875 0.380859375 -0.1171875 0.4296875 l0.039063 0 q2.0703125 -1.6015625 3.8671875 -1.6015625 q0.986328125 0 1.7578125 0.7421875 q0 0.087890625 0.0390625 0.15625 q-0.13671875 0.0390625 -0.15625 0.0390625 l0.039063 0.078125 l-0.039063 0 l0.039063 0.078125 q0 0.078125 -0.3125 0.1171875 q-0.1953125 -0.0390625 -0.1953125 -0.078125 l-0.078125 0.039063 q-0.37109375 -0.078125 -0.5859375 -0.078125 q-0.0390625 0 -0.0390625 0.0390625 q-0.0390625 0 -0.0390625 -0.0390625 q-1.19140625 0 -3.1640625 1.40625 q-1.58203125 1.4453125 -1.8359375 2.0703125 q-0.15625 0.0390625 -0.625 0.9765625 q-0.1953125 0.87890625 -0.390625 1.171875 q-0.341796875 1.0546875 -0.546875 1.0546875 q0 0.29296875 -0.703125 0.4296875 q0 -0.087890625 -0.3125 -0.1953125 l0 -0.039063 q0.0390625 0 0.0390625 -0.0390625 q-0.166015625 0 -0.3515625 -0.9765625 q-0.068359375 0 -0.078125 -0.1953125 l0 -0.078125 l0.078125 0.039063 q1.03515625 -1.708984375 1.09375 -2.265625 q0.0390625 0 0.1171875 -0.3125 l-0.039063 0 q0.1171875 -0.1953125 0.1171875 -0.3125 l-0.039063 -0.078125 l0.078125 -0.039063 q0 0.0390625 0.0390625 0.0390625 q0 -0.25390625 0.546875 -1.9921875 q0.1953125 -0.625 0.5078125 -1.4453125 q0.09765625 -0.5078125 0.15625 -0.546875 z M62.177759375 20.15625 l-0.57617 -0.039063 l-0.16602 -0.087891 q-0.048828125 0.0390625 -0.1171875 0.05859375 q-0.009765625 -0.126953125 -0.517578125 -0.6640625 q-0.25390625 -0.458984375 -0.3125 -0.9375 l0.039063 -0.019531 q-0.009765625 -0.029296875 -0.0390625 -0.029296875 l-0.0097656 0 q0.009765625 -0.517578125 0.0390625 -0.99609375 q0.048828125 -0.810546875 0.15625 -1.5234375 l-0.0097656 0 q-0.029296875 0 -0.029296875 -0.029296875 q0.05859375 -0.009765625 0.15625 -0.693359375 q0.21484375 -1.19140625 0.498046875 -1.982421875 q0.01953125 -0.21484375 0.13671875 -0.234375 q-0.01953125 -0.1171875 -0.078125 -0.21484375 q0.048828125 -0.009765625 0.224609375 -0.751953125 q0.087890625 -0.01953125 0.13671875 -0.205078125 l-0.048828 -0.078125 q0.09765625 -0.29296875 0.107421875 -0.390625 l0 -0.039063 l0.078125 0.019531 l-0.048828 -0.068359 q0.37109375 -1.11328125 0.41015625 -1.455078125 q0.078125 -0.01953125 0.087890625 -0.205078125 l0 -0.087891 q0.09765625 -0.068359375 0.322265625 -0.95703125 q0.146484375 -0.3125 0.302734375 -1.044921875 q0.537109375 -1.4453125 0.810546875 -2.44140625 q0.09765625 -0.01953125 0.17578125 -0.78125 l0.087891 -0.029297 l0.068359 0.029297 l0.078125 -0.058594 q1.044921875 0.087890625 1.07421875 0.2734375 q0.517578125 0.29296875 0.5859375 0.87890625 l0.0097656 0.087891 q-0.01953125 0.263671875 -0.283203125 0.908203125 q0.048828125 0.068359375 0.068359375 0.166015625 l-0.087891 -0.039063 q-0.087890625 0.01953125 -0.439453125 1.220703125 q-0.166015625 0.21484375 -0.751953125 1.97265625 q-0.107421875 0.244140625 -0.185546875 0.6640625 q-0.078125 0.029296875 -0.625 2.041015625 q-0.556640625 1.943359375 -0.927734375 3.701171875 l0.0097656 0 q0.029296875 0 0.0390625 0.0390625 q-0.166015625 0.0390625 -0.29296875 1.513671875 q-0.029296875 0.3515625 -0.107421875 0.693359375 q0.458984375 -0.0390625 0.458984375 -0.09765625 l0 -0.0097656 l0.087891 0.019531 q0.3515625 -0.087890625 0.556640625 -0.087890625 q0.56640625 0 1.689453125 0.234375 q1.1328125 0.244140625 1.71875 0.244140625 q0.21484375 0 0.3515625 -0.029296875 l-0.0097656 -0.048828 l0.087891 0.029297 q0.234375 -0.107421875 0.263671875 -0.107421875 q0.15625 0 0.263671875 0.205078125 l-0.039063 0.0097656 q0.029296875 0.0390625 0.0439453125 0.0732421875 t0.014648 0.063477 q-0.009765625 0.029296875 -0.0390625 0.029296875 q0.029296875 0.0390625 0.0439453125 0.0634765625 t0.014648 0.043945 q-0.009765625 0.09765625 -0.13671875 0.126953125 l-0.0097656 0.048828 l0.058594 0.078125 q-0.205078125 0.283203125 -0.703125 0.439453125 q-0.390625 0 -0.4345703125 0.0146484375 t-0.063477 0.03418 t-0.039063 0.019531 q-0.25390625 0 -2.265625 -0.4296875 l-0.068359 0 q-0.048828125 0 -0.087890625 -0.01953125 q-0.078125 0.068359375 -0.1171875 0.078125 l-0.0097656 -0.039063 q-0.029296875 0.029296875 -0.068359375 0.048828125 t-0.078125 0.019531 l-0.078125 -0.019531 q-1.123046875 0.6640625 -1.38671875 0.72265625 q0 -0.029296875 -0.029296875 -0.029296875 z M74.042990625 9.375 q0.166015625 0 0.3125 0.078125 q0 -0.0390625 0.0390625 -0.0390625 q0 0.068359375 0.1953125 0.1171875 l0 -0.039063 l0.58594 0.15625 q0.13671875 0.15625 0.2734375 0.15625 q0.15625 0.439453125 0.15625 0.546875 l0 0.039063 q0 0.498046875 -0.78125 1.953125 l-0.078125 -0.039063 q-0.712890625 1.2890625 -1.3671875 2.1484375 q-1.162109375 1.2890625 -1.640625 1.2890625 q-0.0390625 0 -0.46875 -0.1171875 l-0.11719 0 q0 -0.09765625 -0.3515625 -0.3125 l-0.23438 -0.35156 l0 -0.078125 l0.15625 0.039063 q0.615234375 0 1.171875 -0.703125 q0.4296875 -0.29296875 0.9765625 -0.9765625 l0.039063 0 l-0.039063 -0.078125 q0.56640625 -0.703125 1.09375 -1.8359375 l0.078125 0 l-0.039063 0.078125 l0.039063 0 l0.11719 -0.19531 l-0.039063 0 q0 0.078125 -0.078125 0.078125 l0 -0.078125 q0.3515625 -0.634765625 0.3515625 -0.7421875 q-0.576171875 0.09765625 -1.640625 1.2109375 q-0.703125 0.60546875 -0.703125 0.859375 q-1.42578125 1.708984375 -2.265625 3.75 q-0.2734375 0.83984375 -0.2734375 1.4453125 q0.1171875 0.9375 0.6640625 0.9375 q0 0.0390625 0.0390625 0.0390625 l0.3125 0 l0.078125 -0.039063 l0 0.039063 q0.60546875 0 2.109375 -1.484375 q0.48828125 -0.46875 0.703125 -0.46875 l0.039063 0 q0 0.078125 0.1953125 0.1953125 l0.039063 0.078125 q-0.078125 0.009765625 -0.078125 0.078125 q0.009765625 0.078125 0.078125 0.078125 q0 -0.0390625 0.0390625 -0.0390625 l0.039063 0.27344 l0 0.078125 l-0.078125 0.11719 l0.039063 0 q-0.0390625 0.048828125 -0.0390625 0.234375 l0.039063 0 q-0.078125 0.15625 -0.1171875 0.15625 l0.039063 0.078125 q-0.498046875 0.927734375 -0.703125 1.1328125 q-0.869140625 0.7421875 -1.40625 0.7421875 q0 0.0390625 -0.2734375 0.0390625 l-0.39063 0 q-0.0390625 0 -0.0390625 -0.0390625 q-0.0390625 0 -0.0390625 0.0390625 q-0.6640625 -0.087890625 -1.5234375 -0.6640625 q-0.46875 -0.380859375 -0.859375 -0.9375 q-0.4296875 -0.927734375 -0.4296875 -1.25 l0 -0.46875 q0.068359375 -0.947265625 0.78125 -2.1484375 q0.29296875 -0.673828125 1.6015625 -2.3828125 q1.396484375 -1.5625 2.0703125 -1.9921875 q0.46875 -0.302734375 0.46875 -0.390625 l0.078125 0.039063 q0 -0.15625 0.6640625 -0.4296875 l0.39063 0 z M77.21675625 13.3203 l0 0.039063 l-0.039063 0.078125 l0.039063 0 l0.11719 -0.15625 l0 -0.039063 z M75.92773625 14.9219 q0 0.0390625 -0.0390625 0.1171875 l0.039063 0 l0.039063 -0.078125 l0 -0.039063 l-0.039063 0 z M76.47460625 14.2187 l-0.078125 0.11719 l0.039063 0 l0.078125 -0.11719 l-0.039063 0 z M77.09965625 13.476600000000001 l-0.19531 0.23438 l0 0.039063 q0.068359375 0 0.234375 -0.2734375 l-0.039063 0 z M76.27929625 17.2266 q0.68359375 -0.458984375 1.2109375 -1.1328125 l1.2891 -1.3672 q1.259765625 -1.357421875 1.4453125 -1.3671875 q0 -0.087890625 0.78125 -0.7421875 q0.0390625 -0.21484375 0.0390625 -0.3515625 l0 -0.11719 l-0.11719 0 l-0.078125 0.039063 l0 -0.039063 q-0.6640625 0.17578125 -0.6640625 0.390625 q-0.224609375 0 -1.09375 0.78125 q-1.2890625 1.23046875 -1.9921875 2.1875 q-0.8203125 1.279296875 -0.8203125 1.71875 z M76.59179625 14.023399999999999 l0 0.078125 q0.05859375 0 0.15625 -0.15625 l0 -0.039063 z M77.21675625 13.3203 l0 -0.039063 q0.2734375 -0.3125 0.3125 -0.3125 l0 0.078125 l0.078125 -0.039063 l-0.039063 -0.078125 q0 -0.05859375 0.1171875 -0.1171875 l0 0.039063 l-0.039063 0.078125 l0.078125 0 q0 -0.068359375 0.4296875 -0.46875 l-0.039063 0 q0.0390625 -0.078125 0.0390625 -0.1171875 l0.039063 0 l0 0.078125 l0.039063 0 q0 -0.263671875 0.3515625 -0.3515625 l0.11719 -0.15625 l-0.039063 0 q0 0.05859375 -0.1171875 0.1171875 l-0.039063 0 l0.23438 -0.27344 q-0.0390625 0 -0.0390625 -0.0390625 q0.1171875 0 0.1171875 -0.078125 l0.039063 0 l0.078125 0.039063 l0 -0.11719 l0.039063 0 l0 0.078125 l0.039063 0 l0 -0.11719 l0.039063 0 q0 0.0390625 0.0390625 0.1171875 q0.078125 -0.0390625 0.1171875 -0.0390625 l-0.039063 -0.078125 q0.4296875 -0.166015625 0.4296875 -0.234375 l0 -0.039063 q0.9375 -0.05859375 0.9375 -0.1171875 l0.078125 0.039063 l0.23438 0 l0.078125 -0.039063 l0 0.039063 l0.078125 -0.039063 l0.23438 0 q0.478515625 0 1.09375 0.78125 l0.039063 0 l0.19531 -0.039063 l0 0.039063 l-0.039063 0.078125 l0.078125 0 q0.0390625 0 0.0390625 -0.0390625 q0.3515625 0.05859375 0.703125 0.5859375 l0 0.11719 q-0.146484375 0.576171875 -1.4453125 2.96875 q-1.1328125 2.40234375 -1.1328125 3.90625 l0 0.23438 q0 0.2734375 0.1171875 0.5859375 q-0.0390625 0.078125 -0.0390625 0.1171875 q0 0.068359375 0.078125 0.234375 q-0.05859375 0 -0.3125 0.234375 l-0.039063 0 q-0.0390625 0 -0.0390625 -0.0390625 l-0.078125 0.039063 q-0.126953125 -0.078125 -0.1953125 -0.078125 q0 0.0390625 -0.0390625 0.0390625 q-0.6640625 -0.60546875 -0.8203125 -1.3671875 l0 -0.078125 l0.039063 -0.078125 l-0.039063 -0.23438 l0 -0.078125 l-0.078125 0 l0.039063 -0.078125 l0 -0.19531 q0 -0.91796875 0.234375 -1.484375 l-0.039063 -0.078125 q0.3125 -1.0546875 0.46875 -1.2890625 l-0.039063 -0.078125 q0 -0.1171875 0.1953125 -0.5078125 l-0.039063 0 q-0.576171875 0.52734375 -2.34375 2.5390625 q-0.966796875 0.99609375 -1.3671875 1.0546875 q-0.78125 0 -1.171875 -0.78125 q-0.1953125 -0.1171875 -0.3125 -0.9375 l0 -0.039063 q0.146484375 -0.625 0.1953125 -0.625 l0 -0.039063 l-0.039063 0 q0.361328125 -1.162109375 0.9765625 -1.8359375 l0 0.039063 l-0.078125 0.11719 l0.039063 0 l0.23438 -0.3125 l-0.078125 0.039063 l-0.039063 0 l0 -0.039063 q0.234375 -0.37109375 0.4296875 -0.5078125 l0 -0.039063 q0.13671875 -0.224609375 0.625 -0.6640625 z M75.02929625 16.1328 l0.11719 0 l0 0.078125 l-0.078125 -0.039063 l0 0.078125 l-0.039063 0 l0 -0.11719 z M75.38085625 15.585899999999999 l0 0.039063 q-0.05859375 0.15625 -0.1171875 0.15625 l0 -0.039063 q0.05859375 -0.15625 0.1171875 -0.15625 z M75.45898625 15.4297 l0 0.11719 l-0.078125 0 l0 -0.039063 q0.009765625 -0.078125 0.078125 -0.078125 z M75.69335925 15.039100000000001 l0 0.039063 q0 0.078125 -0.078125 0.078125 l0 -0.039063 q0.009765625 -0.078125 0.078125 -0.078125 z M75.88867625 14.7656 l0 0.039063 q0 0.05859375 -0.1171875 0.1171875 l0 -0.039063 q0 -0.05859375 0.1171875 -0.1171875 z M76.16210625 14.5703 l0 0.11719 l-0.078125 0 l0 -0.039063 q0.009765625 -0.078125 0.078125 -0.078125 z M76.08398625 14.4922 l0 0.039063 q0 0.05859375 -0.1171875 0.1171875 l0 -0.039063 q0 -0.05859375 0.1171875 -0.1171875 z M76.27929625 14.2187 l0 0.039063 q-0.048828125 0.15625 -0.1953125 0.234375 l0 -0.039063 q0.146484375 -0.234375 0.1953125 -0.234375 z M76.43554625 14.023399999999999 l0 0.039063 q-0.078125 0.09765625 -0.078125 0.15625 l-0.078125 0 q0.078125 -0.17578125 0.15625 -0.1953125 z M77.25585625 13.125 l0 0.039063 q-0.5859375 0.6640625 -0.625 0.6640625 l0 -0.039063 q0.517578125 -0.6640625 0.625 -0.6640625 z M77.88085625 12.6172 l0.039063 0 q0 0.05859375 -0.1171875 0.1171875 l0 -0.039063 q0.009765625 -0.078125 0.078125 -0.078125 z M78.03715625 12.3047 l0.039063 0 l0 0.078125 q-0.107421875 0 -0.546875 0.5078125 l-0.15625 0.11719 l0 -0.039063 q0.60546875 -0.6640625 0.6640625 -0.6640625 z M78.38865625 11.9141 l0.039063 0 l0 0.11719 l-0.15625 0.11719 l0 -0.039063 q0.1171875 -0.126953125 0.1171875 -0.1953125 z M84.580125 11.5625 q0.224609375 0.1171875 0.3125 0.1171875 l0.11719 0 q0 0.087890625 0.2734375 0.1953125 q0.33203125 0.361328125 0.390625 0.78125 l0 0.3125 q-0.1171875 0.380859375 -0.1171875 0.4296875 l0.039063 0 q2.0703125 -1.6015625 3.8671875 -1.6015625 q0.986328125 0 1.7578125 0.7421875 q0 0.087890625 0.0390625 0.15625 q-0.13671875 0.0390625 -0.15625 0.0390625 l0.039063 0.078125 l-0.039063 0 l0.039063 0.078125 q0 0.078125 -0.3125 0.1171875 q-0.1953125 -0.0390625 -0.1953125 -0.078125 l-0.078125 0.039063 q-0.37109375 -0.078125 -0.5859375 -0.078125 q-0.0390625 0 -0.0390625 0.0390625 q-0.0390625 0 -0.0390625 -0.0390625 q-1.19140625 0 -3.1640625 1.40625 q-1.58203125 1.4453125 -1.8359375 2.0703125 q-0.15625 0.0390625 -0.625 0.9765625 q-0.1953125 0.87890625 -0.390625 1.171875 q-0.341796875 1.0546875 -0.546875 1.0546875 q0 0.29296875 -0.703125 0.4296875 q0 -0.087890625 -0.3125 -0.1953125 l0 -0.039063 q0.0390625 0 0.0390625 -0.0390625 q-0.166015625 0 -0.3515625 -0.9765625 q-0.068359375 0 -0.078125 -0.1953125 l0 -0.078125 l0.078125 0.039063 q1.03515625 -1.708984375 1.09375 -2.265625 q0.0390625 0 0.1171875 -0.3125 l-0.039063 0 q0.1171875 -0.1953125 0.1171875 -0.3125 l-0.039063 -0.078125 l0.078125 -0.039063 q0 0.0390625 0.0390625 0.0390625 q0 -0.25390625 0.546875 -1.9921875 q0.1953125 -0.625 0.5078125 -1.4453125 q0.09765625 -0.5078125 0.15625 -0.546875 z M97.64649375 11.0645 l0.15625 0 q0.078125 0.087890625 0.625 0.3125 q0 0.068359375 0.3125 0.3125 q0.3125 0.25390625 0.3125 0.4296875 l0 0.19531 q0 0.56640625 -1.5234375 2.6953125 q-1.220703125 1.650390625 -2.7734375 4.2578125 q-0.3515625 0.751953125 -0.3515625 1.25 q0.009765625 0.09765625 0.1953125 0.15625 q0.048828125 0 0.546875 -0.15625 q0 0.0390625 0.0390625 0.0390625 l0.039063 -0.078125 l0.078125 0.039063 l1.1328 -0.50781 l0 -0.039063 l0.039063 0 q0.0390625 0 0.0390625 0.0390625 l0.82031 -0.39063 q0.234375 -0.05859375 0.234375 -0.15625 l0.078125 0.039063 q0.2734375 -0.224609375 0.9375 -0.46875 q0 -0.048828125 0.0390625 -0.1171875 l0.078125 0.039063 q0.8203125 -0.546875 0.8984375 -0.546875 q0 -0.05859375 0.546875 -0.3125 q0.009765625 -0.078125 0.078125 -0.078125 l0.039063 0 l0 0.078125 l0.039063 0 l0 -0.11719 l0.078125 0 l0 0.078125 l0.078125 -0.039063 l0 0.078125 q-0.05859375 0 -0.15625 0.15625 l0.039063 0.078125 l0 0.039063 q-0.1171875 0 -0.1953125 0.3515625 q0.0390625 0 0.0390625 0.0390625 q-0.146484375 0 -0.4296875 0.46875 l-0.039063 0 l0.039063 0.078125 q-0.068359375 0.126953125 -0.7421875 0.625 q0 0.0390625 0.0390625 0.0390625 q-0.107421875 0.224609375 -0.8203125 0.5859375 q-0.166015625 0.17578125 -1.484375 0.859375 l0 -0.039063 q-0.41015625 0.283203125 -1.09375 0.46875 q-0.546875 0.048828125 -0.546875 0.1171875 q-0.7421875 -0.078125 -1.2109375 -0.3125 q-0.654296875 -0.517578125 -0.8984375 -1.640625 q-0.078125 -0.380859375 -0.078125 -0.5859375 q0.05859375 -0.3515625 0.1171875 -0.3515625 l-0.039063 -0.078125 l0 -0.039063 q0.44921875 -1.171875 0.8984375 -1.6796875 q0.791015625 -1.38671875 1.484375 -2.3046875 l1.1328 -1.7578 l0 -0.039063 l-0.039063 0 q-1.142578125 0.56640625 -2.6953125 1.9921875 q-1.38671875 1.376953125 -2.5390625 2.8125 q-0.810546875 0.9375 -0.9375 0.9375 l-0.039063 0 l0 -0.039063 q-0.0390625 0 -0.0390625 0.0390625 l-0.19531 -0.039063 l-0.039063 0 l-0.078125 0.039063 l0 -0.078125 l-0.078125 0 l-0.078125 0.039063 q-0.537109375 -0.48828125 -0.5859375 -0.7421875 l-0.039063 0 q0 -0.0390625 0.0390625 -0.0390625 l-0.039063 -0.39063 q0 -0.439453125 0.390625 -1.484375 q0.146484375 -0.146484375 0.5078125 -0.859375 q0.966796875 -1.630859375 1.328125 -2.1484375 q0.46875 -0.673828125 0.46875 -0.8203125 l0.078125 0 l0.078125 0.039063 q0.009765625 -0.078125 0.078125 -0.078125 q0.146484375 0.048828125 0.3515625 0.1953125 l0.11719 0 q0.546875 0.33203125 0.546875 0.9765625 q0.1953125 -0.1171875 0.3125 -0.1171875 l-0.039063 -0.078125 q0.205078125 -0.0390625 0.5078125 -0.390625 q0.390625 -0.166015625 0.390625 -0.3125 l0.078125 0.039063 q0.869140625 -0.673828125 2.34375 -1.328125 q0.56640625 -0.2734375 0.9765625 -0.2734375 z M103.789053125 8.281 l0.039063 0 l0.3125 0.15625 q0.068359375 -0.0390625 0.15625 -0.0390625 l0.3125 0.19531 l0.078125 -0.039063 q0.37109375 0.537109375 0.390625 0.7421875 q-0.09765625 0.3125 -0.3515625 0.3125 q-0.205078125 -0.01953125 -0.625 -0.3125 q-0.13671875 0 -0.3125 -0.625 q-0.029296875 0 -0.1171875 -0.1171875 z M102.656253125 11.4844 l0.039063 0 l0 0.078125 q0.0390625 0 0.0390625 -0.0390625 q1.09375 0.302734375 1.09375 0.8984375 q0.0390625 0 0.0390625 0.234375 q-1.513671875 2.412109375 -2.421875 4.296875 q0 0.087890625 -0.3515625 0.78125 q-0.4296875 1.455078125 -0.4296875 1.484375 q0.15625 0.322265625 0.1953125 0.5859375 q-0.05859375 0 -0.1171875 0.15625 l-0.078125 -0.039063 l-0.11719 0 l0 0.078125 q-0.5078125 -0.146484375 -0.5078125 -0.3515625 q-0.0390625 0 -0.0390625 0.0390625 q-0.546875 -0.419921875 -0.546875 -1.1328125 q-0.068359375 0 -0.078125 -0.46875 q0 -1.0546875 1.328125 -3.59375 q0.849609375 -1.62109375 1.6796875 -2.65625 z M111.55274375 11.0645 l0.15625 0 q0.078125 0.087890625 0.625 0.3125 q0 0.068359375 0.3125 0.3125 q0.3125 0.25390625 0.3125 0.4296875 l0 0.19531 q0 0.56640625 -1.5234375 2.6953125 q-1.220703125 1.650390625 -2.7734375 4.2578125 q-0.3515625 0.751953125 -0.3515625 1.25 q0.009765625 0.09765625 0.1953125 0.15625 q0.048828125 0 0.546875 -0.15625 q0 0.0390625 0.0390625 0.0390625 l0.039063 -0.078125 l0.078125 0.039063 l1.1328 -0.50781 l0 -0.039063 l0.039063 0 q0.0390625 0 0.0390625 0.0390625 l0.82031 -0.39063 q0.234375 -0.05859375 0.234375 -0.15625 l0.078125 0.039063 q0.2734375 -0.224609375 0.9375 -0.46875 q0 -0.048828125 0.0390625 -0.1171875 l0.078125 0.039063 q0.8203125 -0.546875 0.8984375 -0.546875 q0 -0.05859375 0.546875 -0.3125 q0.009765625 -0.078125 0.078125 -0.078125 l0.039063 0 l0 0.078125 l0.039063 0 l0 -0.11719 l0.078125 0 l0 0.078125 l0.078125 -0.039063 l0 0.078125 q-0.05859375 0 -0.15625 0.15625 l0.039063 0.078125 l0 0.039063 q-0.1171875 0 -0.1953125 0.3515625 q0.0390625 0 0.0390625 0.0390625 q-0.146484375 0 -0.4296875 0.46875 l-0.039063 0 l0.039063 0.078125 q-0.068359375 0.126953125 -0.7421875 0.625 q0 0.0390625 0.0390625 0.0390625 q-0.107421875 0.224609375 -0.8203125 0.5859375 q-0.166015625 0.17578125 -1.484375 0.859375 l0 -0.039063 q-0.41015625 0.283203125 -1.09375 0.46875 q-0.546875 0.048828125 -0.546875 0.1171875 q-0.7421875 -0.078125 -1.2109375 -0.3125 q-0.654296875 -0.517578125 -0.8984375 -1.640625 q-0.078125 -0.380859375 -0.078125 -0.5859375 q0.05859375 -0.3515625 0.1171875 -0.3515625 l-0.039063 -0.078125 l0 -0.039063 q0.44921875 -1.171875 0.8984375 -1.6796875 q0.791015625 -1.38671875 1.484375 -2.3046875 l1.1328 -1.7578 l0 -0.039063 l-0.039063 0 q-1.142578125 0.56640625 -2.6953125 1.9921875 q-1.38671875 1.376953125 -2.5390625 2.8125 q-0.810546875 0.9375 -0.9375 0.9375 l-0.039063 0 l0 -0.039063 q-0.0390625 0 -0.0390625 0.0390625 l-0.19531 -0.039063 l-0.039063 0 l-0.078125 0.039063 l0 -0.078125 l-0.078125 0 l-0.078125 0.039063 q-0.537109375 -0.48828125 -0.5859375 -0.7421875 l-0.039063 0 q0 -0.0390625 0.0390625 -0.0390625 l-0.039063 -0.39063 q0 -0.439453125 0.390625 -1.484375 q0.146484375 -0.146484375 0.5078125 -0.859375 q0.966796875 -1.630859375 1.328125 -2.1484375 q0.46875 -0.673828125 0.46875 -0.8203125 l0.078125 0 l0.078125 0.039063 q0.009765625 -0.078125 0.078125 -0.078125 q0.146484375 0.048828125 0.3515625 0.1953125 l0.11719 0 q0.546875 0.33203125 0.546875 0.9765625 q0.1953125 -0.1171875 0.3125 -0.1171875 l-0.039063 -0.078125 q0.205078125 -0.0390625 0.5078125 -0.390625 q0.390625 -0.166015625 0.390625 -0.3125 l0.078125 0.039063 q0.869140625 -0.673828125 2.34375 -1.328125 q0.56640625 -0.2734375 0.9765625 -0.2734375 z M121.357403125 12.626999999999999 q0.029296875 0.15625 0.3125 0.15625 l0 -0.039063 l0.58594 0.39063 q0.283203125 0.224609375 0.390625 0.7421875 q0 0.41015625 -1.09375 2.5 q-1.640625 3.759765625 -3.0078125 6.7578125 q-0.888671875 1.748046875 -1.484375 2.6953125 q-0.107421875 0 -1.171875 1.484375 q-0.05859375 0 -0.703125 0.78125 q-0.107421875 0 -0.390625 0.3125 q-1.015625 0.859375 -1.5234375 0.859375 q-0.8984375 -0.15625 -0.8984375 -0.3515625 q-0.166015625 0 -0.546875 -0.7421875 q-0.13671875 -0.048828125 -0.234375 -0.3515625 q0.05859375 0 0.1171875 -0.1171875 q0 -0.087890625 -0.0390625 -0.15625 l0.078125 -0.66406 l0.039063 0 l0 0.11719 l0.039063 0 q0.126953125 -0.95703125 0.2734375 -1.2109375 q0 -0.0390625 -0.0390625 -0.0390625 q0.078125 -0.322265625 0.2734375 -0.6640625 l-0.039063 0 q0 0.0390625 -0.0390625 0.0390625 l0 -0.039063 q0.5078125 -1.298828125 1.25 -2.03125 q0.3125 -0.263671875 0.3125 -0.3125 l-0.039063 0 q0 0.078125 -0.078125 0.078125 l0 -0.11719 q0.078125 0 0.234375 -0.15625 l0.11719 0 l0 -0.039063 l0.039063 0 l0 0.078125 l0.039063 0 q0 -0.13671875 0.0390625 -0.1953125 l-0.039063 0 q0 0.05859375 -0.1171875 0.1171875 l0 -0.039063 q0 -0.05859375 0.2734375 -0.234375 l0.078125 0.039063 q0.146484375 -0.1171875 0.1953125 -0.1171875 l0 -0.078125 l-0.11719 0 l0.039063 -0.078125 l0.19531 0.078125 q0.5078125 -0.33203125 0.5078125 -0.390625 q0.009765625 -0.107421875 0.1953125 -0.15625 l0 0.078125 l0.23438 -0.11719 l0.078125 0.039063 q0 -0.0390625 0.0390625 -0.1171875 l-0.039063 0 q-0.126953125 0.078125 -0.1953125 0.078125 q0.1171875 -0.09765625 0.1171875 -0.15625 l0.078125 0.039063 q0.009765625 -0.078125 0.078125 -0.078125 l0.039063 0 l0 0.078125 l0.27344 -0.039063 l0.11719 0 q-0.15625 0.17578125 -0.15625 0.3515625 l0.15625 0.039063 l0 0.039063 q-0.3515625 0.1171875 -0.3515625 0.3515625 q-0.3125 0.107421875 -0.5859375 0.5078125 q-0.09765625 0 -0.1171875 0.15625 l-0.078125 -0.039063 q-0.0390625 0.078125 -0.0390625 0.1171875 l-0.078125 -0.039063 q0 0.224609375 -0.3125 0.3515625 q-1.3671875 1.337890625 -1.5234375 2.0703125 q0 0.048828125 -0.1953125 0.625 l0.039063 0.078125 l-0.15625 0.9375 q0.0390625 0.068359375 0.0390625 0.15625 l0 0.11719 q0 0.0390625 -0.0390625 0.0390625 l0.039063 0.078125 q0 0.0390625 -0.0390625 0.0390625 q0.029296875 0.5078125 0.1171875 0.5078125 q1.416015625 -1.25 1.796875 -1.875 q0 -0.078125 0.15625 -0.078125 q0 -0.0390625 -0.0390625 -0.0390625 q0.3515625 -0.46875 1.328125 -2.0703125 l0 0.078125 l0.039063 0 q0.0390625 -0.13671875 0.0390625 -0.15625 l-0.039063 0 q1.328125 -2.5 3.28125 -7.109375 q-0.224609375 0.1953125 -0.2734375 0.1953125 l0 0.039063 l0.039063 0.078125 q-1.474609375 1.34765625 -2.6171875 1.875 q-0.60546875 0.3515625 -1.09375 0.3515625 q-0.2734375 0 -0.546875 -0.078125 q0 0.0390625 -0.0390625 0.0390625 q0 -0.068359375 -0.5859375 -0.3125 q-0.8203125 -0.7421875 -0.8203125 -1.25 l0.039063 -0.078125 q-0.1171875 -0.33203125 -0.1171875 -0.46875 l0 -0.11719 q0 -0.361328125 0.3125 -0.6640625 q0.283203125 -0.556640625 1.6015625 -1.9140625 q0.068359375 0 0.390625 -0.390625 q0.986328125 -0.78125 1.0546875 -0.78125 l-0.039063 -0.078125 l0 -0.039063 l0.27344 -0.039063 q0.0390625 0 0.0390625 0.0390625 l0.078125 -0.039063 q0.1171875 0.0390625 0.3125 0.0390625 l0 -0.039063 l0.039063 0 q0.05859375 0.078125 0.703125 0.1953125 q0 -0.0390625 0.0390625 -0.0390625 q0 0.05859375 0.46875 0.2734375 q0.390625 0.56640625 0.390625 0.9375 q-0.0390625 0 -0.0390625 0.0390625 l0.039063 0 q0 -0.0390625 0.0390625 -0.0390625 l0 0.039063 l-0.078125 0.11719 q0.107421875 0 1.2109375 -1.0546875 q0.869140625 -0.64453125 0.9375 -0.7421875 q0.0390625 0 0.1171875 -0.0390625 z M115.498003125 14.2676 l0 0.078125 q0.05859375 0 0.2734375 -0.2734375 q-0.234375 0.1953125 -0.2734375 0.1953125 z M114.833983125 17.627 q0.673828125 -0.13671875 1.3671875 -0.546875 q0 0.0390625 0.0390625 0.0390625 q0.703125 -0.4296875 0.9375 -1.2109375 q0.234375 -0.654296875 0.390625 -1.2109375 l-0.078125 0 q-0.17578125 0.107421875 -0.859375 0.6640625 q-1.26953125 1.30859375 -1.796875 2.265625 z M114.755863125 15.0488 l-0.078125 0.11719 l0.039063 0 q0.078125 -0.09765625 0.078125 -0.1171875 l-0.039063 0 z M114.287109125 15.5957 q0 0.01953125 -0.078125 0.1171875 l0.039063 0 l0.078125 -0.11719 l-0.039063 0 z M114.794923125 21.5332 l0.039063 0 l0 0.23438 l-0.039063 0 l0 -0.23438 z M115.029293125 21.7285 l0.039063 0 q-0.078125 0.15625 -0.234375 0.15625 q0 -0.05859375 0.1953125 -0.15625 z M114.794923125 21.8848 l0 0.078125 q-0.13671875 0.0390625 -0.15625 0.0390625 l0 -0.078125 q0.087890625 0 0.15625 -0.0390625 z M114.326172125 22.1191 l0.039063 0 q0.078125 0.009765625 0.078125 0.078125 l-0.039063 0 q-0.078125 0 -0.078125 -0.078125 z M113.662113125 22.7832 l0 0.078125 q-0.0390625 0 -0.1171875 0.0390625 l0 -0.078125 q0.0390625 0 0.1171875 -0.0390625 z M113.310503125 23.0957 l0.039063 0 q-0.0390625 0.126953125 -0.15625 0.15625 l0 -0.039063 q0 -0.05859375 0.1171875 -0.1171875 z M111.904303125 26.0254 l0.039063 0 l0 0.11719 q-0.0390625 0.068359375 -0.0390625 0.15625 l-0.039063 0 l0 -0.11719 q0.0390625 -0.068359375 0.0390625 -0.15625 z M111.591803125 27.1582 q0.078125 0.009765625 0.078125 0.078125 l0 0.039063 q-0.078125 0 -0.078125 -0.078125 l0 -0.039063 z"></path></g>
			</g>
		</svg>
	